# xmcd
#
# Track frame offsets:
#	150
#	16431
#	38424
#	49823
#	69469
#	83003
#	99562
#	115678
#	138442
#	152270
#	167965
#	184749
#	199307
#	214843
#	239450
#	253234
#	273479
#	291279
#	310062
#	323699
#	337983
#
# Disc length: 4712 seconds
#
# Revision: 0
# Processed by: cddbd v1.5.2PL0 Copyright (c) Steve Scherf et al.
# Submitted via: EasyCDDAExtractor 12.0.1.1
#
DISCID=2a126615
DTITLE=Various Artist - Country Hits, Vol. 08
DYEAR=2009
DGENRE=Country
TTITLE0=Alabama - The Closer You Get
TTITLE1=George Jones - You And Me And Time (With Georgette Jones)
TTITLE2=Merle Haggard - If We Make It Through December
TTITLE3=Martina McBride - I Can't Stop Loving You
TTITLE4=Carter's Chord - Boys Like You (Give Love A Bad Name)
TTITLE5=Lucinda Williams - Circles And X's
TTITLE6=Brandon Rhyder - Let's Don't Go Down That Road
TTITLE7=Lee Greenwood - The Twelve Days Of Christmas
TTITLE8=George Jones - Tavern Choir (With Jim Lauderdale)
TTITLE9=Alabama - Down Home
TTITLE10=Freddy Weller - Stand By Me
TTITLE11=Louise Mandrell - All I Want For Christmas (Dear Is You)
TTITLE12=Martina Mcbride - Everybody Does
TTITLE13=Lucinda Williams - Jailhouse Tears
TTITLE14=George Jones - She Once Lived Here (With Ricky Skaggs)
TTITLE15=Tim McGraw - Back When
TTITLE16=Alabama - Hats Off
TTITLE17=The Higgins - 16 Going On 30
TTITLE18=The Pretenders - Love's A Mystery
TTITLE19=Alabama - Say I
TTITLE20=Lisa Brokop - Band In The Window
EXTD=
EXTT0=
EXTT1=
EXTT2=
EXTT3=
EXTT4=
EXTT5=
EXTT6=
EXTT7=
EXTT8=
EXTT9=
EXTT10=
EXTT11=
EXTT12=
EXTT13=
EXTT14=
EXTT15=
EXTT16=
EXTT17=
EXTT18=
EXTT19=
EXTT20=
PLAYORDER=
